<svg aria-hidden="true" style="position: absolute; width: 0; height: 0; overflow: hidden;" version="1.1" xmlns="http://www.w3.org/2000/svg" xmlns:xlink="http://www.w3.org/1999/xlink">
<defs>
<symbol id="icon-x" viewBox="0 0 32 32">
<path d="M27.429 3.428l-24 24"></path>
</symbol>
<symbol id="arrow" viewBox="0 0 53 32">
<path fill="#c79002" style="fill: var(--color1, #c79002)" d="M1.211 2.507c0.724-0.724 1.724-1.171 2.828-1.171s2.104 0.448 2.828 1.171l19.8 19.795 19.8-19.795c0.719-0.695 1.699-1.123 2.779-1.123 2.209 0 4 1.791 4 4 0 1.080-0.428 2.060-1.124 2.78l0.001-0.001-22.627 22.629c-0.724 0.724-1.724 1.171-2.828 1.171s-2.104-0.448-2.828-1.171l-22.629-22.632c-0.723-0.724-1.17-1.723-1.17-2.827s0.447-2.103 1.17-2.827l-0 0z"></path>
</symbol>
</defs>
</svg>